<?xml version="1.0" encoding="utf-8"?>
<!-- Generator: Adobe Illustrator 15.0.0, SVG Export Plug-In . SVG Version: 6.00 Build 0)  -->
<!DOCTYPE svg PUBLIC "-//W3C//DTD SVG 1.1//EN" "http://www.w3.org/Graphics/SVG/1.1/DTD/svg11.dtd">
<svg version="1.1" id="Calque_1" xmlns="http://www.w3.org/2000/svg" xmlns:xlink="http://www.w3.org/1999/xlink" x="0px" y="0px"
	 width="512px" height="512px" viewBox="0 0 512 512" enable-background="new 0 0 512 512" xml:space="preserve">
<g>
	<g>
		<path  d="M508.386,97.003c-18.579,8.232-38.513,13.816-59.458,16.308c21.386-12.806,37.756-33.12,45.515-57.25
			c-20.06,11.86-42.203,20.471-65.797,25.14c-18.894-20.156-45.769-32.709-75.575-32.709c-57.187,0-103.554,46.367-103.554,103.521
			c0,8.107,0.915,16.024,2.682,23.594C166.151,171.285,89.851,130.06,38.784,67.416c-8.926,15.267-14.005,33.056-14.005,52.045
			c0,35.927,18.295,67.626,46.053,86.173c-16.97-0.568-32.931-5.236-46.904-12.996v1.293c0,50.152,35.706,92.008,83.051,101.536
			c-8.675,2.333-17.822,3.627-27.284,3.627c-6.687,0-13.153-0.662-19.494-1.924c13.185,41.162,51.415,71.096,96.709,71.916
			c-35.422,27.758-80.086,44.254-128.598,44.254c-8.359,0-16.592-0.504-24.697-1.419c45.831,29.429,100.241,46.589,158.72,46.589
			c190.484,0,294.605-157.776,294.605-294.605l-0.348-13.406C476.938,135.989,494.538,117.758,508.386,97.003z"/>
	</g>
</g>
</svg>
