<?xml version="1.0" encoding="utf-8"?>
<!-- Generator: Adobe Illustrator 16.0.0, SVG Export Plug-In . SVG Version: 6.00 Build 0)  -->
<!DOCTYPE svg PUBLIC "-//W3C//DTD SVG 1.1//EN" "http://www.w3.org/Graphics/SVG/1.1/DTD/svg11.dtd">
<svg version="1.1" id="Capa_1" xmlns="http://www.w3.org/2000/svg" xmlns:xlink="http://www.w3.org/1999/xlink" x="0px" y="0px"
	 width="512px" height="512px" viewBox="0 0 512 512" enable-background="new 0 0 512 512" xml:space="preserve">
<g>
	<g>
		<path  d="M376.294,415.774c-3.301-1.028-6.648-2.057-10.044-3.133c1.698-7.317,3.324-15.328,4.759-23.77
			c7.007-4.782,14.013-9.732,20.9-14.825c0.358,4.399,0.598,8.608,0.813,12.793C387.342,397.194,381.89,406.974,376.294,415.774
			L376.294,415.774z M188.506,87.186c3.993-3.084,7.986-5.954,11.885-8.704c0.167-2.032,0.358-3.945,0.55-5.811
			c3.897-1.507,7.748-2.989,11.55-4.353c4.567,6.026,9.828,13.535,15.543,22.239c-1.817,1.889-3.635,3.826-5.476,5.811
			c-6.17,2.104-12.435,4.305-18.676,6.528c0.717-6.768,1.506-13.057,2.391-18.724c-2.415,3.874-4.854,7.987-7.341,12.291
			c-4.28,0.144-8.561,0.312-12.794,0.479C186.904,93.523,187.693,90.271,188.506,87.186L188.506,87.186z M509.107,252.258
			c-6.122,7.437-13.272,15.305-21.307,23.507c-0.144,4.926-0.335,9.899-0.502,14.802c-3.037,4.28-6.17,8.537-9.47,12.889
			c-3.133-12.841-6.672-26.185-10.785-39.791c-4.567-7.245-9.47-14.635-14.658-22.144c-12.101-3.013-25.229-6.073-39.05-9.229
			c-4.065-3.922-8.274-7.82-12.53-11.766c-2.057,1.243-4.065,2.463-6.122,3.683c3.229,7.796,6.385,15.591,9.374,23.411
			c4.663-2.535,9.302-5.094,13.75-7.581c6.073,5.213,11.933,10.354,17.552,15.376c-16.644,11.646-35.009,23.89-54.354,36.252
			c-9.207-20.206-19.322-41.273-29.964-62.197c-2.199,0.335-4.399,0.693-6.575,1.053c10.928,24.917,21.449,50.05,30.584,73.891
			c10.092-5.094,19.896-10.187,29.39-15.185c-3.229,11.263-6.72,22.478-10.427,33.454c-10.043,9.422-20.421,18.7-30.871,27.763
			c0.502,12.746,0.765,24.941,0.717,36.204c-5.811,3.994-11.598,7.867-17.433,11.622c-11.908,15.974-23.673,29.796-34.841,40.484
			c-9.374,1.22-18.676,2.344-27.93,3.42c-6.959-10.904-15.232-25.803-24.224-43.498c2.128-8.106,4.424-16.739,6.695-25.922
			c-5.667-15.926-11.67-33.334-17.743-51.389c-20.351,1.243-40.485,2.319-60.165,3.204c-11.383-10.713-22.622-21.641-33.574-32.617
			c1.435-17.6,3.229-35.582,5.309-53.469c10.689-13.344,21.737-26.688,32.833-39.791c20.947-3.874,42.35-7.629,63.608-11.191
			c1.339,5.476,2.654,11,3.993,16.548c8.729,5.571,17.456,11.263,26.257,16.954c3.371-4.663,6.624-9.303,9.899-13.846
			c13.319,3.443,26.472,6.935,39.433,10.45c3.3-2.009,6.552-3.994,9.828-5.955c1.339-4.878,2.559-9.685,3.826-14.443
			c-8.752-1.626-17.672-3.3-26.663-4.926c-3.037-4.95-6.098-9.899-9.135-14.778c-2.176-1.028-4.328-2.08-6.433-3.156
			c-1.674,6.05-3.396,12.22-5.165,18.461c-4.113-5.021-8.202-9.972-12.315-14.874c0.216-4.065,0.431-8.083,0.551-12.052
			c-5.381-4.042-10.737-7.987-16.022-11.861c-3.204-1.482-6.36-2.941-9.493-4.376c0.311,3.802,0.526,7.676,0.861,11.598
			c6.623,4.209,13.343,8.489,20.063,12.865c-3.396,3.73-6.815,7.557-10.307,11.454c-4.902-6.241-9.756-12.362-14.515-18.341
			c-3.468-3.755-6.863-7.461-10.283-11.096c-7.938,3.658-15.949,7.461-23.96,11.287c-5.739,8.273-11.551,16.787-17.337,25.467
			c-8.466-1.195-16.835-2.343-25.133-3.467c-0.12-10.307-0.168-20.374-0.072-30.011c10.45,0.43,21.02,0.908,31.732,1.482
			c-3.204-5.069-6.36-10.044-9.469-14.874c-1.817-3.945-3.611-7.819-5.381-11.55c7.987-2.439,15.998-4.854,23.961-7.15
			c4.543-5.093,8.991-9.995,13.415-14.683c3.491-0.215,7.007-0.454,10.474-0.669c-0.669-2.606-1.362-5.165-2.032-7.629
			c2.296-2.343,4.495-4.543,6.695-6.767c1.674,3.635,3.372,7.437,5.069,11.382c9.709,0.191,19.418,0.479,29.078,0.789
			c2.487-5.5,4.807-10.713,7.079-15.591c3.658,0.956,7.364,1.937,11.047,2.894c-1.53-3.443-3.061-6.72-4.567-9.853
			c5.381-1.1,10.569-2.151,15.783-3.156c-1.89-1.411-3.778-2.75-5.644-4.065c-4.615,0.741-9.374,1.555-14.156,2.392
			c-2.009-2.773-3.97-5.404-5.931-7.892c-0.263,0-0.502-0.023-0.741-0.023c0.096-0.191,0.191-0.358,0.311-0.55
			c-0.789-1.028-1.626-2.033-2.463-2.966c1.794-0.741,3.587-1.482,5.356-2.152c1.411-2.391,2.535-4.16,3.802-6.098
			c-1.722-0.144-3.491-0.311-5.236-0.454c-2.487,1.507-5.046,3.229-7.652,5.021c-2.104,2.727-4.305,5.812-6.6,9.111
			c2.869,1.889,5.763,3.802,8.656,5.811c-2.392,4.878-4.878,10.282-7.557,16.069c-4.328,1.244-8.681,2.487-13.104,3.778
			c-2.486-6.002-4.949-11.573-7.317-16.715c-4.949,1.937-10.02,3.922-15.112,6.026c-2.368-1.053-4.688-2.033-7.007-3.037
			c0.526-5.094,1.1-9.805,1.674-13.989c4.257-1.961,8.417-3.755,12.482-5.452c3.491-4.472,6.839-8.154,9.948-11
			c7.891-1.603,15.472-2.917,22.693-3.993c18.364,0.837,37.495,2.176,56.889,3.802c26.901-0.908,59.472-2.08,73.843-2.773
			C370.77,20.613,315.913,0,256.203,0C195.273,0,139.389,21.379,95.437,56.913c2.941,0.406,5.858,0.837,8.823,1.291
			c1.746,4.376,3.73,9.111,6.074,14.42c0.766,2.702,1.603,5.596,2.511,8.585c-4.639,4.424-9.206,9.206-13.654,14.3
			c-0.933,2.511-1.841,5.046-2.726,7.676c-3.396,1.913-6.696,3.874-9.996,5.835c-2.152,7.149-4.137,14.706-5.979,22.55
			c-4.041-0.574-8.034-1.124-11.884-1.65c-2.702-15.639-4.257-29.078-5.5-41.656c-11.885,13.654-22.479,28.48-31.303,44.479
			c1.315-1.101,2.535-2.176,3.874-3.252c3.42,17.289,7.532,36.252,13.128,56.889c-11.238,7.245-21.33,14.443-30.034,21.378
			c-6.337,5.858-11.789,11.622-16.5,17.146c-1.22,10.188-2.057,20.541-2.057,31.063c0,21.832,3.037,42.923,8.154,63.178
			c4.544,1.649,9.493,3.276,14.993,4.878c8.37,9.565,17.911,19.274,28.409,28.863c2.296,6.862,4.734,13.606,7.293,20.254
			c13.631,8.465,28.528,16.691,44.048,24.415c-4.687,14.516-8.298,27.189-11,38.117c-6.05,0.191-11.908,0.335-17.695,0.431
			C120.76,482.946,185.086,512,256.227,512c138.982,0,251.852-110.884,255.582-248.957
			C510.828,259.431,510.111,255.917,509.107,252.258z"/>
	</g>
</g>
</svg>
